<?xml version="1.0" encoding="utf-8"?>
<!-- Generator: Adobe Illustrator 22.1.0, SVG Export Plug-In . SVG Version: 6.00 Build 0)  -->
<svg version="1.1" id="Calque_1" xmlns="http://www.w3.org/2000/svg" xmlns:xlink="http://www.w3.org/1999/xlink" x="0px" y="0px"
	 viewBox="0 0 399.6 456.7" style="enable-background:new 0 0 399.6 456.7;" xml:space="preserve">
<style type="text/css">
	.st0{fill:#0000FF;}
</style>
<title>logo</title>
<path class="st0" d="M399.6,61.4v247.3c0,9.2-4.9,17.7-12.9,22.3L177.1,452c-10.8,6.3-24.2,6.3-35,0l-97.9-56.5
	c-6.4-3.7-8.7-12-4.9-18.4c1.6-2.8,4.2-4.9,7.2-6c50.6-17.9,117.3-58.1,120-146.6V62.2c0,0,2.3-62.2,51.2-62.2s63.4,41.1,62.3,68.9
	s-5.6,45.6-53.4,75.6c-1.4,0.9-2.8,1.8-4.1,2.7c-26.8,19-2.4,59.5,26.6,44.1c7.9-4.2,14.1-9.5,23-15.7c54-37.8,60-71.1,58.9-115.6
	c-0.3-9.2-1.7-18.4-4.2-27.3c-3.4-12.3,9.5-22.7,20.6-16.3L386.6,39C394.7,43.7,399.6,52.2,399.6,61.4z"/>
<path class="st0" d="M111.1,22.6c7.6,0,13.8,6.2,13.8,13.8v157.9C122.4,276.3,69.8,320.5,20,344c-14.5,6.8-27.3-12.1-15.3-22.7
	c70.1-62.1,67.8-125.8,67.8-125.8V36.4c0-7.6,6.2-13.8,13.8-13.8l0,0C86.3,22.6,111.1,22.6,111.1,22.6z"/>
</svg>
