<svg id="Calque_1" data-name="Calque 1" xmlns="http://www.w3.org/2000/svg" viewBox="0 0 399.55 456.72"><defs><style>.cls-1{fill:#fff;}</style></defs><title>logo-white</title><path class="cls-1" d="M399.58,61.44V308.76a25.78,25.78,0,0,1-12.9,22.33L177.13,452a35,35,0,0,1-35,0L44.24,395.52a13.47,13.47,0,0,1,2.28-24.38c50.64-17.85,117.28-58.08,120-146.58V62.24S168.79,0,217.69,0,281.09,41.12,280,68.94s-5.59,45.56-53.36,75.59q-2.15,1.35-4.1,2.74c-26.81,19-2.37,59.52,26.63,44.07,7.87-4.19,14.1-9.48,23-15.72,54.05-37.81,60-71.1,58.91-115.6a114.6,114.6,0,0,0-4.22-27.29c-3.41-12.32,9.54-22.66,20.61-16.27l39.24,22.65A25.81,25.81,0,0,1,399.58,61.44Z" transform="translate(-0.03)"/><path class="cls-1" d="M111.1,22.61a13.84,13.84,0,0,1,13.82,13.83V194.3c-2.54,82-55.14,126.18-104.87,149.7C5.58,350.84-7.21,331.91,4.79,321.29,74.88,259.14,72.6,195.52,72.6,195.52V36.44A13.83,13.83,0,0,1,86.43,22.61H111.1Z" transform="translate(-0.03)"/></svg>
